<svg xmlns="http://www.w3.org/2000/svg" width="270" height="91.728" viewBox="0 0 270 91.728"><g transform="translate(-618.766 -176.446)"><path d="M694.672,218.216h2.6V205.585h-2.6v-2.354H705c4.286,0,6.96,1.907,6.96,5.721,0,4.037-2.947,5.771-6.96,5.771h-3.394l-1.46-.891v4.385h4.112v2.354h-9.587Zm10.106-5.6c3.2,0,4.211-1.487,4.211-3.543,0-2.13-1.065-3.492-4.211-3.492h-4.631v7.034Z" transform="translate(58.626 20.687)" fill="#161615"/><path d="M725.016,218.216v2.354h-4.234v-.422c0-5.078-1.338-6.712-5.055-6.712h-2.476l-1.437-.892v5.672h3.617v2.354h-9.09v-2.354h2.6V205.585h-2.6v-2.354h11.122c3.616,0,6.414,1.338,6.414,5a4.373,4.373,0,0,1-3.591,4.41c1.535.47,2.379,1.708,3.071,4.507C723.556,217.919,723.9,218.142,725.016,218.216Zm-7.727-6.91c2.7,0,3.616-1.437,3.616-2.972,0-1.363-.792-2.749-3.616-2.749h-5.475v5.721Z" transform="translate(67.639 20.687)" fill="#161615"/><path d="M719.141,218.216h2.6V205.585h-2.6v-2.354h16.894v6.762h-2.18l-.62-4.408h-8.619v5.473l7.258-.817v2.923l-7.258-.867v5.92h8.619l.62-4.606h2.18v6.96H719.141Z" transform="translate(77.525 20.687)" fill="#161615"/><path d="M735.748,218.216h2.726V205.585H734.51l-.546,4.457h-2.526l.767-6.811h15.407l.767,6.811h-2.527l-.544-4.457h-3.963v12.632h2.724v2.354h-8.323Z" transform="translate(87.023 20.687)" fill="#161615"/><path d="M652.116,185.871V198.5h2.354v2.354h-7.357V198.5h2.23V186.266l-6.416,14.59h-2.6l-6.416-14.615V198.5h2.23v2.354h-7.6V198.5h2.6V185.871h-2.6v-2.354h6.96l6.118,14.069,6.143-14.069h6.712v2.354Z" transform="translate(7.547 5.461)" fill="#161615"/><path d="M645.194,192.317c0-5.748,3.839-8.968,9.736-8.968,5.92,0,9.758,3.22,9.758,8.968s-3.839,8.966-9.758,8.966C649.033,201.283,645.194,198.063,645.194,192.317Zm16.522,0c0-4.683-2.923-6.838-6.786-6.838-3.841,0-6.763,2.155-6.763,6.838s2.923,6.836,6.763,6.836C658.793,199.153,661.716,197,661.716,192.317Z" transform="translate(20.412 5.332)" fill="#161615"/><path d="M658.218,198.5h2.6V185.871h-2.6v-2.354h5.649l10.576,13.326V185.871h-2.476v-2.354h7.6v2.354h-2.354v14.985h-3.022l-10.6-13.3V198.5h2.478v2.354h-7.853Z" transform="translate(30.471 5.461)" fill="#161615"/><path d="M686.1,178.9l-9.51,25.066h2.6v2.354h-7.529v-2.354h2.056l9.833-25.166h0l.927-2.352h17.713l10.921,27.518h2.18v2.354H693.159v-2.354h2.6Z" transform="translate(40.854 0)" fill="#161615"/><path d="M739.43,178.9l-9.51,25.066h2.6v2.354h-7.531v-2.354h2.056L736.88,178.8h0l.927-2.352h26.841l10.921,27.518h2.18v2.354H746.488v-2.354h2.6Z" transform="translate(82.043 0)" fill="#161615"/><path d="M670.266,198.611l-9.511,25.066h2.6v2.354h-7.529v-2.354h2.056l9.833-25.166h0l.927-2.352h38.125l10.921,27.518h2.18v2.354H677.324v-2.354h2.6Z" transform="translate(28.624 15.226)" fill="#161615"/><path d="M755.382,198.611l-9.51,25.066h2.6v2.354h-7.529v-2.354H743l9.833-25.166h0l.927-2.352H781.3l10.921,27.518h2.18v2.354H762.44v-2.354h2.6Z" transform="translate(94.364 15.226)" fill="#161615"/><path d="M700.661,198.336h-.05c-.2.991-.4,1.833-.643,2.724H697.96c.149-2.155.149-4.484.1-6.267l2.676-.323c-.025.3-.025.471-.025.62,0,2.575,2.674,4.062,5.82,4.062,2.848,0,4.656-1.065,4.656-2.947,0-1.487-1.016-2.3-3.715-2.552l-3.889-.37c-3.419-.323-5.45-1.884-5.45-4.732,0-3.516,2.825-5.2,7.034-5.2,2.9,0,4.854.868,5.773,2.527h.05c.172-.941.346-1.609.519-2.23h2.006c-.124,1.808-.149,4.062-.1,5.895l-2.7.323a5.394,5.394,0,0,0,.025-.594c0-2.949-2.577-3.791-5.4-3.791-2.947,0-4.358,1.016-4.358,2.577,0,1.51,1.088,2.254,3.491,2.5l3.665.372c3.717.372,5.895,1.833,5.895,4.929,0,4.087-3.541,5.425-7.306,5.425C703.608,201.283,701.552,200.341,700.661,198.336Z" transform="translate(61.166 5.332)" fill="#161615"/><path d="M713.482,198.5h2.6V185.871h-2.6v-2.354h9.908c6.687,0,9.957,2.947,9.957,8.571,0,5.5-3.2,8.768-9.783,8.768H713.482Zm10.156,0c4.457,0,6.737-2.327,6.737-6.341,0-4.383-2.5-6.29-6.737-6.29h-4.683V198.5Z" transform="translate(73.154 5.461)" fill="#161615"/><path d="M618.766,218.216h2.6V205.585h-2.6v-2.354h8.447v2.354h-2.974v12.632h7.109l.769-5.1h2.155v7.456H618.766Z" transform="translate(0 20.687)" fill="#161615"/><path d="M630.2,212.029c0-5.746,3.839-8.966,9.734-8.966,5.92,0,9.759,3.22,9.759,8.966S645.85,221,639.931,221C634.036,221,630.2,217.777,630.2,212.029Zm16.52,0c0-4.681-2.923-6.836-6.786-6.836-3.839,0-6.762,2.155-6.762,6.836s2.923,6.836,6.762,6.836C643.794,218.865,646.717,216.712,646.717,212.029Z" transform="translate(8.829 20.558)" fill="#161615"/><path d="M643.221,218.216h2.6V205.585h-2.6v-2.354h5.647l10.577,13.326V205.585h-2.478v-2.354h7.605v2.354h-2.354V220.57H659.2l-10.6-13.3v10.948h2.478v2.354h-7.852Z" transform="translate(18.888 20.687)" fill="#161615"/><g transform="translate(643.113 253.105)"><path d="M632.5,229.827h1.554V221.32H632.5v-1.473h3.385v4.876a3.534,3.534,0,0,1,3.174-1.834,2.792,2.792,0,0,1,3.109,3.011v3.928h1.554V231.3H640.34v-5.188a1.722,1.722,0,0,0-1.932-1.831,2.538,2.538,0,0,0-2.52,2.6v2.946h1.719V231.3h-5.1Z" transform="translate(-632.503 -219.585)" fill="#161615"/><path d="M644.308,229.827V231.3h-4.924v-1.473h1.538v-5.269h-1.554v-1.471h3.385v6.74Zm-1.554-8.165h-1.93v-1.815h1.93Z" transform="translate(-627.201 -219.585)" fill="#161615"/><path d="M644.344,228.993h-.032l-.1.982H642.9c.05-.883.066-1.914.05-3l1.523-.113c-.246,1.489.62,2.077,2.518,2.077,1.406,0,2.127-.441,2.127-1.177,0-.656-.67-.886-2.127-1.065l-.819-.1c-2.258-.262-3.321-1.014-3.321-2.568,0-1.491,1.391-2.472,3.371-2.472,1.6,0,2.6.525,2.846,1.457h.034l.131-1.163h1.308c-.065,1.195-.065,1.916-.049,2.848l-1.521.131a2.8,2.8,0,0,0,.032-.393c0-1.014-.9-1.7-2.5-1.7-1.292,0-2.061.424-2.061,1.127,0,.672.606.948,1.98,1.1l.8.083c2.488.262,3.534.964,3.534,2.487,0,1.6-1.358,2.634-3.435,2.634C645.85,230.17,644.819,229.778,644.344,228.993Z" transform="translate(-624.508 -218.259)" fill="#161615"/><path d="M649.393,228.218V224h-1.62V222.7h.785c.9,0,1.079-.427,1.473-2.061l.065-.28h1l.133,2.325h3.353V224h-3.353v4.057c0,1.179.539,1.767,1.717,1.767a1.379,1.379,0,0,0,1.57-1.407,3.454,3.454,0,0,0-.066-.654l1.26.425a2.974,2.974,0,0,1,.066.638c0,1.457-1.211,2.274-3.141,2.274C650.522,231.1,649.393,230.23,649.393,228.218Z" transform="translate(-620.709 -219.186)" fill="#161615"/><path d="M652.82,227.306c0-2.65,1.783-4.3,4.615-4.3s4.629,1.654,4.629,4.3-1.785,4.3-4.629,4.3S652.82,229.941,652.82,227.306Zm7.378,0c0-2.028-1.079-3.091-2.763-3.091-1.654,0-2.751,1.063-2.751,3.091s1.1,3.077,2.751,3.077C659.119,230.383,660.2,229.319,660.2,227.306Zm-3.81-5.071,1.735-2.536h2.125l-2.371,2.536Z" transform="translate(-616.811 -219.699)" fill="#161615"/><path d="M658.421,228.466h1.554V223.2h-1.554v-1.471h2.9l.277,1.849h.032a2.781,2.781,0,0,1,2.667-1.966,2.375,2.375,0,0,1,2.5,2.586,3,3,0,0,1-.1.769l-1.588.393a3.1,3.1,0,0,0,.05-.557c0-1.047-.441-1.833-1.5-1.833-1.145,0-1.85,1.161-1.85,2.455v3.043h2v1.473h-5.383Z" transform="translate(-612.485 -218.224)" fill="#161615"/><path d="M668.639,229.827V231.3h-4.924v-1.473h1.538v-5.269H663.7v-1.471h3.385v6.74Zm-1.554-8.165h-1.928v-1.815h1.928Z" transform="translate(-608.409 -219.585)" fill="#161615"/><path d="M667.021,227.961c0-2.029,1.994-2.324,3.99-2.6,1.276-.179,1.966-.588,1.966-1.374s-.572-1.242-1.638-1.242a2.05,2.05,0,0,0-2.109,2.01l-1.654.083c0-1-.034-2.373-.066-2.979h1.26c.032.328.131.952.213,1.393h.032a2.711,2.711,0,0,1,2.733-1.687,2.988,2.988,0,0,1,2.651,1.425,3.753,3.753,0,0,1,.392,1.93v2.9c0,.59.328.916.769.916a1.673,1.673,0,0,0,.819-.262v1.326a3.41,3.41,0,0,1-1.489.328,1.645,1.645,0,0,1-1.685-1.767,3.946,3.946,0,0,1-3.5,1.8C668.247,230.154,667.021,229.466,667.021,227.961Zm5.937-1.195v-1.21a4.037,4.037,0,0,1-2,.769c-1.129.195-2.079.459-2.079,1.39,0,.837.737,1.179,1.654,1.179A2.245,2.245,0,0,0,672.958,226.767Z" transform="translate(-605.843 -218.259)" fill="#161615"/><path d="M674.349,228.993h-.032l-.1.982H672.91c.05-.883.066-1.914.05-3l1.521-.113c-.245,1.489.622,2.077,2.519,2.077,1.407,0,2.129-.441,2.129-1.177,0-.656-.67-.886-2.129-1.065l-.817-.1c-2.258-.262-3.321-1.014-3.321-2.568,0-1.491,1.391-2.472,3.371-2.472,1.6,0,2.6.525,2.846,1.457h.034l.131-1.163h1.308c-.065,1.195-.065,1.916-.049,2.848l-1.522.131a2.55,2.55,0,0,0,.034-.393c0-1.014-.9-1.7-2.5-1.7-1.294,0-2.061.424-2.061,1.127,0,.672.606.948,1.98,1.1l.8.083c2.488.262,3.534.964,3.534,2.487,0,1.6-1.358,2.634-3.435,2.634C675.855,230.17,674.824,229.778,674.349,228.993Z" transform="translate(-601.333 -218.259)" fill="#161615"/><path d="M679.929,227.209c0-3.011,1.863-4.321,3.958-4.321A3.669,3.669,0,0,1,687,224.411v-3.075h-1.717v-1.489h3.55v9.046l.294,2.407h-1.65l-.312-1.735a3.715,3.715,0,0,1-3.468,1.93C681.81,231.495,679.929,230.417,679.929,227.209Zm7.1.425v-.884a2.563,2.563,0,0,0-2.651-2.568c-1.226,0-2.586.606-2.586,3.027,0,2.308,1.294,2.978,2.52,2.978A2.592,2.592,0,0,0,687.029,227.635Z" transform="translate(-595.874 -219.585)" fill="#161615"/><path d="M685.87,225.884a3.97,3.97,0,0,1,4.3-4.321c2.373,0,4.17.982,4.17,3.6,0,.261-.014.62-.048.932h-6.561c0,1.849.916,2.814,2.618,2.814,1.179,0,2.308-.393,2.308-1.654a2.354,2.354,0,0,0-.032-.36l1.554.163a2.353,2.353,0,0,1,.032.36c0,1.948-1.88,2.749-4.009,2.749C687.472,230.17,685.87,228.649,685.87,225.884Zm6.659-.753a2.243,2.243,0,0,0,.034-.326c0-1.441-1.063-2.047-2.357-2.047a2.283,2.283,0,0,0-2.453,2.373Z" transform="translate(-591.285 -218.259)" fill="#161615"/><path d="M698.238,229.827V231.3H693.3v-1.473h1.554V221.32H693.3v-1.473h3.385v9.98Z" transform="translate(-585.548 -219.585)" fill="#161615"/><path d="M706.094,231.261c0,1.767-1.652,2.765-4.957,2.765-3.355,0-4.5-.767-4.5-1.932,0-.539.278-1.5,1.916-1.749v-.034c-1.359-.113-1.8-.867-1.8-1.473,0-.785.556-1.34,1.489-1.652a2.5,2.5,0,0,1-.966-2.012c0-2.013,1.882-2.914,4.027-2.914a6.075,6.075,0,0,1,2.421.443l.507-2.045,2.043,1.145-1.831,1.343a2.507,2.507,0,0,1,.9,2.028c0,1.948-1.735,2.912-4.075,2.912a5.457,5.457,0,0,1-2.455-.523,1.049,1.049,0,0,0-.572.833c0,.409.393.672,1.226.672h3.749C704.818,229.069,706.094,229.592,706.094,231.261Zm-1.865.36c0-.638-.491-.964-1.359-.964h-2.962c-1.113,0-1.62.6-1.62,1.161,0,.851.95,1.211,2.866,1.211C703.3,233.028,704.23,232.488,704.23,231.621Zm-5.089-6.412a1.935,1.935,0,0,0,2.143,1.928c1.26,0,2.192-.638,2.192-1.928,0-1.343-.932-1.932-2.175-1.932A1.917,1.917,0,0,0,699.141,225.209Z" transform="translate(-582.969 -218.958)" fill="#161615"/><path d="M705.173,229.63l-.214,1.67H703.4l.294-2.455v-7.509h-1.553v-1.489h3.385v4.729a3.742,3.742,0,0,1,3.258-1.687c1.978,0,3.811,1.129,3.811,4.208,0,3.141-1.767,4.4-3.894,4.4A3.878,3.878,0,0,1,705.173,229.63Zm5.562-2.5c0-2.29-1.31-2.928-2.57-2.928a2.578,2.578,0,0,0-2.666,2.586v.9a2.554,2.554,0,0,0,2.7,2.519C709.475,230.2,710.735,229.533,710.735,227.126Z" transform="translate(-578.714 -219.585)" fill="#161615"/><path d="M709.983,228.218V224h-1.618V222.7h.785c.9,0,1.079-.427,1.473-2.061l.066-.28h1l.131,2.325h3.355V224h-3.355v4.057c0,1.179.541,1.767,1.719,1.767a1.379,1.379,0,0,0,1.57-1.407,3.6,3.6,0,0,0-.066-.654l1.26.425a2.974,2.974,0,0,1,.066.638c0,1.457-1.211,2.274-3.142,2.274C711.114,231.1,709.983,230.23,709.983,228.218Z" transform="translate(-573.911 -219.186)" fill="#161615"/><path d="M715,228.993h-.034l-.1.982h-1.308c.05-.883.066-1.914.05-3l1.523-.113c-.246,1.489.62,2.077,2.519,2.077,1.407,0,2.127-.441,2.127-1.177,0-.656-.67-.886-2.127-1.065l-.817-.1c-2.26-.262-3.321-1.014-3.321-2.568,0-1.491,1.39-2.472,3.369-2.472,1.6,0,2.6.525,2.848,1.457h.032l.131-1.163h1.31c-.067,1.195-.067,1.916-.051,2.848l-1.521.131a2.572,2.572,0,0,0,.032-.393c0-1.014-.9-1.7-2.5-1.7-1.292,0-2.061.424-2.061,1.127,0,.672.606.948,1.98,1.1l.8.083c2.487.262,3.534.964,3.534,2.487,0,1.6-1.359,2.634-3.436,2.634C716.507,230.17,715.475,229.778,715,228.993Z" transform="translate(-569.935 -218.259)" fill="#161615"/><path d="M722.125,228.993h-.034l-.1.982h-1.308c.05-.883.066-1.914.05-3l1.522-.113c-.246,1.489.62,2.077,2.519,2.077,1.407,0,2.127-.441,2.127-1.177,0-.656-.67-.886-2.127-1.065l-.817-.1c-2.26-.262-3.321-1.014-3.321-2.568,0-1.491,1.39-2.472,3.369-2.472,1.6,0,2.6.525,2.848,1.457h.032l.131-1.163h1.31c-.067,1.195-.067,1.916-.051,2.848l-1.521.131a2.565,2.565,0,0,0,.032-.393c0-1.014-.9-1.7-2.5-1.7-1.292,0-2.061.424-2.061,1.127,0,.672.606.948,1.98,1.1l.8.083c2.487.262,3.534.964,3.534,2.487,0,1.6-1.359,2.634-3.437,2.634C723.63,230.17,722.6,229.778,722.125,228.993Z" transform="translate(-564.433 -218.259)" fill="#161615"/><path d="M725.84,225.884a3.97,3.97,0,0,1,4.3-4.321c2.371,0,4.17.982,4.17,3.6,0,.261-.016.62-.048.932H727.7c0,1.849.916,2.814,2.618,2.814,1.179,0,2.308-.393,2.308-1.654a2.119,2.119,0,0,0-.034-.36l1.554.163a2.12,2.12,0,0,1,.034.36c0,1.948-1.882,2.749-4.009,2.749C727.442,230.17,725.84,228.649,725.84,225.884Zm6.659-.753a2.471,2.471,0,0,0,.032-.326c0-1.441-1.062-2.047-2.355-2.047a2.285,2.285,0,0,0-2.455,2.373Z" transform="translate(-560.414 -218.259)" fill="#161615"/><path d="M731.237,228.5h1.554v-5.269h-1.554v-1.471h2.912l.246,1.944h.032a3.42,3.42,0,0,1,3.19-2.143,2.671,2.671,0,0,1,2.832,2.161,3.382,3.382,0,0,1,3.188-2.161,2.738,2.738,0,0,1,3.011,3.077V228.5H748.2v1.473h-5.1V228.5h1.717v-3.683A1.674,1.674,0,0,0,743,222.956a2.471,2.471,0,0,0-2.371,2.485v4.534H738.8v-4.957c0-1.342-.638-2.061-1.849-2.061a2.425,2.425,0,0,0-2.325,2.568V228.5h1.719v1.473h-5.1Z" transform="translate(-556.246 -218.259)" fill="#161615"/><path d="M744.823,228.218V224H743.2V222.7h.783c.9,0,1.081-.427,1.475-2.061l.066-.28h1l.131,2.325h3.355V224h-3.355v4.057c0,1.179.54,1.767,1.719,1.767a1.379,1.379,0,0,0,1.57-1.407,3.611,3.611,0,0,0-.066-.654l1.26.425a2.974,2.974,0,0,1,.066.638c0,1.457-1.211,2.274-3.142,2.274C745.954,231.1,744.823,230.23,744.823,228.218Z" transform="translate(-547.002 -219.186)" fill="#161615"/><path d="M748.252,225.884a3.97,3.97,0,0,1,4.3-4.321c2.373,0,4.17.982,4.17,3.6,0,.261-.016.62-.048.932h-6.561c0,1.849.916,2.814,2.618,2.814,1.179,0,2.308-.393,2.308-1.654a2.126,2.126,0,0,0-.034-.36l1.554.163a2.12,2.12,0,0,1,.034.36c0,1.948-1.882,2.749-4.009,2.749C749.854,230.17,748.252,228.649,748.252,225.884Zm6.659-.753a2.212,2.212,0,0,0,.032-.326c0-1.441-1.062-2.047-2.355-2.047a2.285,2.285,0,0,0-2.455,2.373Z" transform="translate(-543.104 -218.259)" fill="#161615"/><path d="M755.1,228.218V224h-1.62V222.7h.787c.9,0,1.079-.427,1.473-2.061l.065-.28h1l.133,2.325h3.353V224h-3.353v4.057c0,1.179.539,1.767,1.717,1.767a1.379,1.379,0,0,0,1.57-1.407,3.454,3.454,0,0,0-.066-.654l1.26.425a2.982,2.982,0,0,1,.066.638c0,1.457-1.21,2.274-3.141,2.274C756.233,231.1,755.1,230.23,755.1,228.218Z" transform="translate(-539.065 -219.186)" fill="#161615"/><path d="M758.53,225.866c0-2.65,1.783-4.3,4.615-4.3s4.629,1.654,4.629,4.3-1.785,4.3-4.629,4.3S758.53,228.5,758.53,225.866Zm7.378,0c0-2.028-1.079-3.091-2.763-3.091-1.654,0-2.751,1.063-2.751,3.091s1.1,3.077,2.751,3.077C764.829,228.943,765.908,227.88,765.908,225.866Z" transform="translate(-535.166 -218.259)" fill="#161615"/></g><rect width="65.892" height="2.983" transform="translate(621.172 212.789)" fill="#161615"/><rect width="94.51" height="3.158" transform="translate(744.571 212.789)" fill="#161615"/></g></svg>