<svg xmlns="http://www.w3.org/2000/svg" width="318.04" height="321.375" viewBox="0 0 318.04 321.375">
  <g id="logo-AsMonasDaLonaPreta" transform="translate(-97.169 -347.7)">
    <rect id="Retângulo_2" data-name="Retângulo 2" width="136.912" height="6.529" transform="translate(270.216 449.594)" fill="#fff"/>
    <rect id="Retângulo_3" data-name="Retângulo 3" width="55.683" height="6.529" transform="translate(351.445 522.18)" fill="#fff"/>
    <rect id="Retângulo_4" data-name="Retângulo 4" width="162.692" height="6.529" transform="translate(97.169 350.907)" fill="#fff"/>
    <rect id="Retângulo_5" data-name="Retângulo 5" width="50.687" height="6.529" transform="translate(356.441 350.907)" fill="#fff"/>
    <rect id="Retângulo_6" data-name="Retângulo 6" width="136.695" height="6.529" transform="translate(97.169 557.543)" fill="#fff"/>
    <rect id="Retângulo_7" data-name="Retângulo 7" width="58.514" height="6.529" transform="translate(97.169 599.938)" fill="#fff"/>
    <path id="Caminho_1" data-name="Caminho 1" d="M131.286,492h5.377V465.885h-5.377v-4.864h21.356c8.858,0,14.39,3.943,14.39,11.828,0,8.349-6.1,11.933-14.39,11.933h-7.016l-3.022-1.844V492h8.5v4.864H131.286Zm20.893-11.573c6.606,0,8.707-3.075,8.707-7.324,0-4.4-2.2-7.221-8.707-7.221H142.6V480.43Z" transform="translate(37.292 123.868)" fill="#fff"/>
    <path id="Caminho_2" data-name="Caminho 2" d="M190.327,492v4.864h-8.755V496c0-10.5-2.767-13.877-10.449-13.877H166l-2.97-1.844V492h7.476v4.864h-18.8V492h5.377V465.885h-5.377v-4.864h22.994c7.477,0,13.264,2.765,13.264,10.344,0,4.2-2.355,7.834-7.426,9.115,3.175.973,4.917,3.533,6.35,9.32C187.307,491.387,188.023,491.848,190.327,492Zm-15.976-14.287c5.582,0,7.476-2.97,7.476-6.145,0-2.817-1.639-5.685-7.476-5.685H163.033v11.83Z" transform="translate(59.622 123.868)" fill="#fff"/>
    <path id="Caminho_3" data-name="Caminho 3" d="M174.124,492H179.5V465.885h-5.377v-4.864h34.927V475h-4.506l-1.281-9.115h-17.82V477.2l15.005-1.689v6.043l-15.005-1.794V492h17.82l1.281-9.526h4.506v14.39H174.124Z" transform="translate(84.117 123.868)" fill="#fff"/>
    <path id="Caminho_4" data-name="Caminho 4" d="M204.564,492H210.2V465.885H202l-1.126,9.218h-5.224l1.587-14.082H229.1l1.587,14.082h-5.224l-1.126-9.218h-8.194V492h5.635v4.864H204.564Z" transform="translate(107.651 123.868)" fill="#fff"/>
    <path id="Caminho_5" data-name="Caminho 5" d="M147.34,364.946v26.117H152.2v4.864H137v-4.864H141.6v-25.3l-13.262,30.163h-5.377L109.7,365.715v25.349h4.609v4.864H98.586v-4.864h5.379V364.946H98.586V360.08h14.392l12.648,29.087,12.7-29.087H152.2v4.866Z" transform="translate(1.549 13.532)" fill="#fff"/>
    <path id="Caminho_6" data-name="Caminho 6" d="M127.749,378.325c0-11.88,7.937-18.538,20.125-18.538,12.24,0,20.177,6.658,20.177,18.538s-7.937,18.538-20.177,18.538C135.686,396.864,127.749,390.206,127.749,378.325Zm34.157,0c0-9.678-6.043-14.135-14.032-14.135-7.937,0-13.98,4.456-13.98,14.135s6.043,14.135,13.98,14.135C155.863,392.46,161.906,388,161.906,378.325Z" transform="translate(33.426 13.212)" fill="#fff"/>
    <path id="Caminho_7" data-name="Caminho 7" d="M150.55,391.064h5.377V364.946H150.55V360.08h11.677l21.866,27.551V364.946h-5.122V360.08H194.7v4.866h-4.866v30.982h-6.248l-21.919-27.5v22.637h5.122v4.864H150.55Z" transform="translate(58.349 13.532)" fill="#fff"/>
    <path id="Caminho_8" data-name="Caminho 8" d="M203.942,352.772,184.275,404.6h5.379v4.864H174.086V404.6h4.249l20.33-52.03h0l1.917-4.866h57.39l22.578,56.9h4.506v4.864H218.532V404.6h5.377Z" transform="translate(84.076)" fill="#fff"/>
    <path id="Caminho_9" data-name="Caminho 9" d="M162.687,389.167l-19.664,51.825H148.4v4.866H132.831v-4.866h4.251l20.33-52.03h0l1.917-4.864h42.429l22.58,56.894h4.506v4.866H177.277v-4.866h5.379Z" transform="translate(38.981 39.786)" fill="#fff"/>
    <path id="Caminho_10" data-name="Caminho 10" d="M198.09,426.238l-19.664,51.825H183.8v4.866H168.234v-4.866h4.251l20.33-52.03h0l1.917-4.864h56.944l22.578,56.894h4.506v4.866H212.68v-4.866h5.377Z" transform="translate(77.679 80.307)" fill="#fff"/>
    <path id="Caminho_11" data-name="Caminho 11" d="M242.147,453.71l-19.664,51.825h5.379V510.4H212.293v-4.864h4.249l20.33-52.03h0l1.917-4.864h23.495l22.58,56.894h4.506V510.4H256.739v-4.864h5.377Z" transform="translate(125.839 110.336)" fill="#fff"/>
    <path id="Caminho_12" data-name="Caminho 12" d="M235.629,390.769h-.1c-.41,2.049-.821,3.791-1.331,5.632h-4.148c.306-4.454.306-9.268.205-12.956l5.53-.666c-.05.615-.05.973-.05,1.281,0,5.327,5.53,8.4,12.033,8.4,5.89,0,9.628-2.2,9.628-6.1,0-3.073-2.1-4.762-7.682-5.275l-8.04-.768c-7.068-.666-11.267-3.891-11.267-9.781,0-7.273,5.838-10.754,14.543-10.754,5.992,0,10.038,1.792,11.933,5.222h.1c.358-1.944.718-3.328,1.076-4.609h4.148c-.255,3.738-.308,8.4-.205,12.188l-5.582.668a10.967,10.967,0,0,0,.052-1.231c0-6.093-5.327-7.834-11.164-7.834-6.1,0-9.013,2.1-9.013,5.325,0,3.125,2.252,4.661,7.221,5.174l7.579.768c7.682.768,12.188,3.789,12.188,10.191,0,8.45-7.324,11.215-15.108,11.215C241.724,396.864,237.475,394.917,235.629,390.769Z" transform="translate(145.247 13.212)" fill="#fff"/>
    <path id="Caminho_13" data-name="Caminho 13" d="M118.14,415.08h5.377V388.962H118.14V384.1h20.485c13.827,0,20.587,6.1,20.587,17.718,0,11.37-6.608,18.13-20.23,18.13H118.14Zm21,0c9.218,0,13.929-4.814,13.929-13.109,0-9.065-5.174-13.008-13.929-13.008h-9.68V415.08Z" transform="translate(22.923 39.786)" fill="#fff"/>
    <path id="Caminho_14" data-name="Caminho 14" d="M110.055,452.151h5.377V426.033h-5.377v-4.864h17.463v4.864h-6.145v26.117h14.7l1.587-10.549h4.456v15.415H110.055Z" transform="translate(14.085 80.307)" fill="#fff"/>
    <path id="Caminho_15" data-name="Caminho 15" d="M130.067,439.414c0-11.882,7.937-18.538,20.125-18.538,12.24,0,20.177,6.656,20.177,18.538s-7.937,18.536-20.177,18.536C138,457.951,130.067,451.295,130.067,439.414Zm34.157,0c0-9.68-6.043-14.134-14.032-14.134-7.937,0-13.98,4.454-13.98,14.134s6.043,14.132,13.98,14.132C158.181,453.547,164.224,449.093,164.224,439.414Z" transform="translate(35.96 79.987)" fill="#fff"/>
    <path id="Caminho_16" data-name="Caminho 16" d="M152.868,452.151h5.377V426.033h-5.377v-4.864h11.677l21.866,27.551V426.033H181.29v-4.864h15.723v4.864h-4.866v30.984H185.9l-21.917-27.5v22.634h5.12v4.866H152.868Z" transform="translate(60.883 80.307)" fill="#fff"/>
    <g id="Grupo_1" data-name="Grupo 1" transform="translate(102.653 648.864)">
      <path id="Caminho_17" data-name="Caminho 17" d="M99.789,505.139h2.085V493.73H99.789v-1.976h4.54v6.539a4.742,4.742,0,0,1,4.257-2.457c2.633,0,4.169,1.471,4.169,4.038v5.266h2.085v1.974H110.3v-6.955a2.31,2.31,0,0,0-2.589-2.457,3.405,3.405,0,0,0-3.38,3.489v3.95h2.3v1.974H99.789Z" transform="translate(-99.789 -491.402)" fill="#fff"/>
      <path id="Caminho_18" data-name="Caminho 18" d="M114.211,505.139v1.974h-6.6v-1.974h2.064v-7.066h-2.087V496.1h4.542v9.042Zm-2.085-10.951h-2.587v-2.434h2.587Z" transform="translate(-91.269 -491.402)" fill="#fff"/>
      <path id="Caminho_19" data-name="Caminho 19" d="M113.542,503.665H113.5l-.132,1.317h-1.754c.065-1.185.088-2.566.065-4.014l2.041-.155c-.329,2,.833,2.788,3.378,2.788,1.888,0,2.853-.592,2.853-1.58,0-.879-.9-1.185-2.853-1.428l-1.1-.13c-3.027-.352-4.454-1.361-4.454-3.447,0-1.995,1.865-3.311,4.521-3.311,2.15,0,3.487.7,3.818,1.953h.042l.176-1.557h1.756c-.088,1.6-.088,2.566-.067,3.818l-2.039.174a3.743,3.743,0,0,0,.044-.525c0-1.361-1.208-2.284-3.357-2.284-1.733,0-2.765.571-2.765,1.515,0,.9.812,1.273,2.656,1.469l1.074.111c3.334.352,4.739,1.293,4.739,3.336,0,2.15-1.821,3.531-4.607,3.531C115.56,505.245,114.178,504.718,113.542,503.665Z" transform="translate(-86.939 -489.271)" fill="#fff"/>
      <path id="Caminho_20" data-name="Caminho 20" d="M119.3,502.873v-5.662H117.13v-1.733h1.055c1.206,0,1.446-.569,1.974-2.763l.088-.375h1.337l.176,3.115h4.5v1.756h-4.5v5.442c0,1.58.724,2.371,2.3,2.371a1.849,1.849,0,0,0,2.106-1.89,4.734,4.734,0,0,0-.088-.877l1.689.571a3.965,3.965,0,0,1,.088.856c0,1.953-1.622,3.05-4.211,3.05C120.818,506.735,119.3,505.571,119.3,502.873Z" transform="translate(-80.834 -490.761)" fill="#fff"/>
      <path id="Caminho_21" data-name="Caminho 21" d="M122.862,501.79c0-3.554,2.39-5.771,6.187-5.771,3.818,0,6.21,2.217,6.21,5.771,0,3.533-2.392,5.771-6.21,5.771C125.252,507.56,122.862,505.323,122.862,501.79Zm9.9,0c0-2.721-1.448-4.146-3.709-4.146-2.217,0-3.686,1.425-3.686,4.146,0,2.7,1.469,4.125,3.686,4.125C131.31,505.915,132.758,504.488,132.758,501.79Zm-5.113-6.8,2.325-3.4h2.853l-3.182,3.4Z" transform="translate(-74.569 -491.586)" fill="#fff"/>
      <path id="Caminho_22" data-name="Caminho 22" d="M129.223,502.951h2.085v-7.066h-2.085v-1.976h3.883l.373,2.48h.044a3.727,3.727,0,0,1,3.577-2.633,3.184,3.184,0,0,1,3.357,3.466,4.046,4.046,0,0,1-.132,1.034l-2.129.525a4.273,4.273,0,0,0,.067-.747c0-1.4-.592-2.457-2.02-2.457-1.536,0-2.478,1.557-2.478,3.292v4.081h2.675v1.974h-7.217Z" transform="translate(-67.615 -489.214)" fill="#fff"/>
      <path id="Caminho_23" data-name="Caminho 23" d="M141.843,505.139v1.974h-6.6v-1.974H137.3v-7.066h-2.085V496.1h4.542v9.042Zm-2.085-10.951h-2.589v-2.434h2.589Z" transform="translate(-61.065 -491.402)" fill="#fff"/>
      <path id="Caminho_24" data-name="Caminho 24" d="M138.988,502.284c0-2.721,2.677-3.117,5.354-3.489,1.712-.241,2.633-.791,2.633-1.844s-.768-1.668-2.194-1.668a2.758,2.758,0,0,0-2.832,2.7l-2.214.109c0-1.337-.044-3.179-.088-3.991h1.689c.044.437.176,1.271.285,1.865h.044a3.635,3.635,0,0,1,3.665-2.261,4,4,0,0,1,3.554,1.909,5.021,5.021,0,0,1,.527,2.589v3.883c0,.791.437,1.229,1.03,1.229a2.213,2.213,0,0,0,1.1-.352v1.779a4.583,4.583,0,0,1-1.995.44,2.206,2.206,0,0,1-2.261-2.371,5.284,5.284,0,0,1-4.695,2.413C140.633,505.222,138.988,504.3,138.988,502.284Zm7.964-1.6v-1.622a5.4,5.4,0,0,1-2.675,1.03c-1.513.264-2.786.615-2.786,1.867,0,1.118.986,1.58,2.214,1.58A3.013,3.013,0,0,0,146.952,500.68Z" transform="translate(-56.942 -489.271)" fill="#fff"/>
      <path id="Caminho_25" data-name="Caminho 25" d="M147.618,503.665h-.044l-.132,1.317h-1.754c.065-1.185.088-2.566.065-4.014l2.041-.155c-.329,2,.835,2.788,3.378,2.788,1.888,0,2.853-.592,2.853-1.58,0-.879-.9-1.185-2.853-1.428l-1.095-.13c-3.029-.352-4.456-1.361-4.456-3.447,0-1.995,1.865-3.311,4.521-3.311,2.15,0,3.487.7,3.818,1.953H154l.176-1.557h1.756c-.088,1.6-.088,2.566-.065,3.818l-2.041.174a3.744,3.744,0,0,0,.044-.525c0-1.361-1.208-2.284-3.357-2.284-1.733,0-2.765.571-2.765,1.515,0,.9.812,1.273,2.656,1.469l1.074.111c3.336.352,4.741,1.293,4.741,3.336,0,2.15-1.823,3.531-4.609,3.531C149.638,505.245,148.254,504.718,147.618,503.665Z" transform="translate(-49.691 -489.271)" fill="#fff"/>
      <path id="Caminho_26" data-name="Caminho 26" d="M153.647,501.627c0-4.038,2.5-5.792,5.312-5.792a4.916,4.916,0,0,1,4.167,2.041v-4.125h-2.3v-2h4.76v12.134l.4,3.225h-2.217l-.416-2.325a4.983,4.983,0,0,1-4.651,2.589C156.171,507.377,153.647,505.928,153.647,501.627Zm9.524.571v-1.185a3.435,3.435,0,0,0-3.554-3.443c-1.645,0-3.466.81-3.466,4.056,0,3.1,1.733,3.994,3.378,3.994A3.473,3.473,0,0,0,163.171,502.2Z" transform="translate(-40.918 -491.402)" fill="#fff"/>
      <path id="Caminho_27" data-name="Caminho 27" d="M160.4,499.5c0-3.531,2.085-5.792,5.771-5.792,3.181,0,5.595,1.317,5.595,4.827,0,.352-.023.835-.067,1.252h-8.8c0,2.478,1.229,3.772,3.51,3.772,1.58,0,3.094-.523,3.094-2.215a2.893,2.893,0,0,0-.044-.483l2.085.22a2.906,2.906,0,0,1,.044.481c0,2.612-2.524,3.688-5.375,3.688C162.546,505.245,160.4,503.207,160.4,499.5Zm8.929-1.007a3.213,3.213,0,0,0,.044-.44c0-1.932-1.425-2.744-3.158-2.744a3.066,3.066,0,0,0-3.292,3.184Z" transform="translate(-33.541 -489.271)" fill="#fff"/>
      <path id="Caminho_28" data-name="Caminho 28" d="M175.458,505.139v1.974h-6.627v-1.974h2.085V493.73h-2.085v-1.976h4.542v13.385Z" transform="translate(-24.321 -491.402)" fill="#fff"/>
      <path id="Caminho_29" data-name="Caminho 29" d="M185.306,506.893c0,2.371-2.214,3.711-6.648,3.711-4.5,0-6.034-1.034-6.034-2.591,0-.722.373-2.02,2.568-2.348v-.042c-1.823-.155-2.415-1.164-2.415-1.976,0-1.055.747-1.8,2-2.215a3.359,3.359,0,0,1-1.294-2.7c0-2.7,2.522-3.906,5.4-3.906a8.158,8.158,0,0,1,3.246.592l.68-2.742,2.742,1.534-2.455,1.8a3.367,3.367,0,0,1,1.206,2.721c0,2.612-2.325,3.906-5.463,3.906a7.308,7.308,0,0,1-3.292-.7,1.415,1.415,0,0,0-.768,1.12c0,.548.527.9,1.645.9h5.025C183.594,503.955,185.306,504.658,185.306,506.893Zm-2.5.486c0-.858-.659-1.3-1.821-1.3h-3.971c-1.492,0-2.173.812-2.173,1.559,0,1.141,1.273,1.624,3.839,1.624C181.555,509.265,182.8,508.54,182.8,507.379Zm-6.823-8.6a2.6,2.6,0,0,0,2.874,2.587c1.689,0,2.941-.854,2.941-2.587,0-1.8-1.252-2.589-2.918-2.589C177.342,496.187,175.981,496.976,175.981,498.776Z" transform="translate(-20.175 -490.393)" fill="#fff"/>
      <path id="Caminho_30" data-name="Caminho 30" d="M182.94,504.876l-.285,2.237H180.57l.394-3.29V493.751h-2.085v-2h4.542V498.1a5.016,5.016,0,0,1,4.366-2.26c2.656,0,5.113,1.513,5.113,5.639,0,4.211-2.369,5.9-5.222,5.9A5.21,5.21,0,0,1,182.94,504.876Zm7.46-3.357c0-3.071-1.756-3.929-3.445-3.929a3.459,3.459,0,0,0-3.577,3.468v1.208A3.426,3.426,0,0,0,187,505.644C188.71,505.644,190.4,504.744,190.4,501.518Z" transform="translate(-13.338 -491.402)" fill="#fff"/>
      <path id="Caminho_31" data-name="Caminho 31" d="M188.115,502.873v-5.662h-2.173v-1.733h1.053c1.208,0,1.448-.569,1.976-2.763l.088-.375H190.4l.176,3.115h4.5v1.756h-4.5v5.442c0,1.58.724,2.371,2.3,2.371a1.849,1.849,0,0,0,2.106-1.89,4.732,4.732,0,0,0-.088-.877l1.689.571a3.968,3.968,0,0,1,.088.856c0,1.953-1.622,3.05-4.211,3.05C189.63,506.735,188.115,505.571,188.115,502.873Z" transform="translate(-5.617 -490.761)" fill="#fff"/>
      <path id="Caminho_32" data-name="Caminho 32" d="M193.786,503.665h-.044l-.132,1.317h-1.754c.065-1.185.088-2.566.065-4.014l2.041-.155c-.329,2,.835,2.788,3.378,2.788,1.888,0,2.853-.592,2.853-1.58,0-.879-.9-1.185-2.853-1.428l-1.1-.13c-3.027-.352-4.454-1.361-4.454-3.447,0-1.995,1.865-3.311,4.521-3.311,2.15,0,3.487.7,3.818,1.953h.042l.176-1.557H202.1c-.088,1.6-.088,2.566-.065,3.818l-2.041.174a3.73,3.73,0,0,0,.044-.525c0-1.361-1.208-2.284-3.357-2.284-1.733,0-2.765.571-2.765,1.515,0,.9.812,1.273,2.656,1.469l1.074.111c3.336.352,4.741,1.293,4.741,3.336,0,2.15-1.823,3.531-4.609,3.531C195.806,505.245,194.422,504.718,193.786,503.665Z" transform="translate(0.774 -489.271)" fill="#fff"/>
      <path id="Caminho_33" data-name="Caminho 33" d="M201.877,503.665h-.044l-.132,1.317h-1.756c.065-1.185.088-2.566.065-4.014l2.043-.155c-.331,2,.833,2.788,3.378,2.788,1.886,0,2.853-.592,2.853-1.58,0-.879-.9-1.185-2.853-1.428l-1.1-.13c-3.029-.352-4.456-1.361-4.456-3.447,0-1.995,1.867-3.311,4.521-3.311,2.15,0,3.489.7,3.818,1.953h.044l.176-1.557h1.756c-.088,1.6-.088,2.566-.067,3.818l-2.041.174a3.454,3.454,0,0,0,.044-.525c0-1.361-1.206-2.284-3.357-2.284-1.733,0-2.763.571-2.763,1.515,0,.9.81,1.273,2.654,1.469l1.076.111c3.334.352,4.739,1.293,4.739,3.336,0,2.15-1.821,3.531-4.609,3.531C203.895,505.245,202.513,504.718,201.877,503.665Z" transform="translate(9.616 -489.271)" fill="#fff"/>
      <path id="Caminho_34" data-name="Caminho 34" d="M205.788,499.5c0-3.531,2.085-5.792,5.771-5.792,3.182,0,5.595,1.317,5.595,4.827,0,.352-.021.835-.065,1.252h-8.8c0,2.478,1.229,3.772,3.512,3.772,1.58,0,3.094-.523,3.094-2.215a2.888,2.888,0,0,0-.044-.483l2.083.22a2.7,2.7,0,0,1,.044.481c0,2.612-2.522,3.688-5.375,3.688C207.938,505.245,205.788,503.207,205.788,499.5Zm8.931-1.007a3.581,3.581,0,0,0,.044-.44c0-1.932-1.425-2.744-3.161-2.744a3.063,3.063,0,0,0-3.29,3.184Z" transform="translate(16.076 -489.271)" fill="#fff"/>
      <path id="Caminho_35" data-name="Caminho 35" d="M211.918,503.008H214v-7.066h-2.085v-1.976h3.906l.329,2.612h.044a4.584,4.584,0,0,1,4.278-2.874,3.579,3.579,0,0,1,3.8,2.895,4.536,4.536,0,0,1,4.278-2.895c2.545,0,4.038,1.384,4.038,4.125v5.178h2.085v1.974h-6.846v-1.974h2.3V498.07a2.248,2.248,0,0,0-2.436-2.5,3.316,3.316,0,0,0-3.181,3.336v6.076h-2.457v-6.65c0-1.8-.856-2.763-2.478-2.763a3.253,3.253,0,0,0-3.117,3.445v3.994h2.3v1.974h-6.844Z" transform="translate(22.776 -489.271)" fill="#fff"/>
      <path id="Caminho_36" data-name="Caminho 36" d="M227.68,502.873v-5.662h-2.171v-1.733h1.053c1.206,0,1.448-.569,1.976-2.763l.088-.375h1.337l.176,3.115h4.5v1.756h-4.5v5.442c0,1.58.722,2.371,2.3,2.371a1.851,1.851,0,0,0,2.108-1.89,4.732,4.732,0,0,0-.088-.877l1.689.571a3.964,3.964,0,0,1,.088.856c0,1.953-1.624,3.05-4.213,3.05C229.195,506.735,227.68,505.571,227.68,502.873Z" transform="translate(37.632 -490.761)" fill="#fff"/>
      <path id="Caminho_37" data-name="Caminho 37" d="M231.241,499.5c0-3.531,2.085-5.792,5.771-5.792,3.181,0,5.595,1.317,5.595,4.827,0,.352-.021.835-.065,1.252h-8.8c0,2.478,1.229,3.772,3.51,3.772,1.58,0,3.094-.523,3.094-2.215a2.691,2.691,0,0,0-.044-.483l2.085.22a2.7,2.7,0,0,1,.044.481c0,2.612-2.522,3.688-5.375,3.688C233.391,505.245,231.241,503.207,231.241,499.5Zm8.929-1.007a3.213,3.213,0,0,0,.044-.44c0-1.932-1.425-2.744-3.158-2.744a3.066,3.066,0,0,0-3.292,3.184Z" transform="translate(43.898 -489.271)" fill="#fff"/>
      <path id="Caminho_38" data-name="Caminho 38" d="M239.355,502.873v-5.662h-2.173v-1.733h1.055c1.206,0,1.446-.569,1.974-2.763l.088-.375h1.337l.176,3.115h4.5v1.756h-4.5v5.442c0,1.58.724,2.371,2.3,2.371a1.85,1.85,0,0,0,2.106-1.89,4.737,4.737,0,0,0-.088-.877l1.689.571a3.964,3.964,0,0,1,.088.856c0,1.953-1.622,3.05-4.213,3.05C240.868,506.735,239.355,505.571,239.355,502.873Z" transform="translate(50.392 -490.761)" fill="#fff"/>
      <path id="Caminho_39" data-name="Caminho 39" d="M242.914,499.475c0-3.554,2.392-5.771,6.189-5.771,3.816,0,6.208,2.217,6.208,5.771,0,3.533-2.392,5.771-6.208,5.771C245.306,505.245,242.914,503.008,242.914,499.475Zm9.9,0c0-2.721-1.448-4.146-3.707-4.146-2.217,0-3.688,1.425-3.688,4.146,0,2.7,1.471,4.125,3.688,4.125C251.362,503.6,252.81,502.173,252.81,499.475Z" transform="translate(56.657 -489.271)" fill="#fff"/>
    </g>
  </g>
</svg>
