<?xml version="1.0" encoding="UTF-8" standalone="no"?>
<!-- Created with Inkscape (http://www.inkscape.org/) -->

<svg
   xmlns:dc="http://purl.org/dc/elements/1.1/"
   xmlns:cc="http://creativecommons.org/ns#"
   xmlns:rdf="http://www.w3.org/1999/02/22-rdf-syntax-ns#"
   xmlns:svg="http://www.w3.org/2000/svg"
   xmlns="http://www.w3.org/2000/svg"
   xmlns:xlink="http://www.w3.org/1999/xlink"
   xmlns:sodipodi="http://sodipodi.sourceforge.net/DTD/sodipodi-0.dtd"
   xmlns:inkscape="http://www.inkscape.org/namespaces/inkscape"
   width="800"
   height="800"
   id="svg5590"
   version="1.1"
   inkscape:version="0.48.4 r9939"
   sodipodi:docname="Pride_heart_(vector_format).svg"
   inkscape:export-filename="C:\Users\Jörgen Carlberg.JörgenCarlberg\Desktop\pride peace heart.png"
   inkscape:export-xdpi="90"
   inkscape:export-ydpi="90">
  <defs
     id="defs5592">
    <linearGradient
       y2="689.31537"
       x2="575.52856"
       y1="651.80219"
       x1="575"
       gradientTransform="matrix(3.9081381,0,0,3.9081381,-1844.3843,-2177.0438)"
       gradientUnits="userSpaceOnUse"
       id="linearGradient5498"
       xlink:href="#linearGradient3854"
       inkscape:collect="always" />
    <linearGradient
       id="linearGradient3854">
      <stop
         style="stop-color:#ffffff;stop-opacity:1;"
         offset="0"
         id="stop3856" />
      <stop
         id="stop5517"
         offset="1"
         style="stop-color:#ffffff;stop-opacity:0;" />
    </linearGradient>
    <pattern
       inkscape:collect="always"
       xlink:href="#pattern5469"
       id="pattern5481"
       patternTransform="matrix(0.25722518,0.08562721,-0.09994127,0.3002248,-880.60345,589.06767)" />
    <pattern
       patternUnits="userSpaceOnUse"
       width="2948.7153"
       height="2656.519"
       patternTransform="translate(-3115.9244,-1739.148)"
       id="pattern5469">
      <g
         transform="translate(3649.2849,1617.9297)"
         id="g3143">
        <g
           id="g3244">
          <rect
             style="fill:#e10c13;fill-opacity:1;stroke:none"
             id="rect3078"
             width="491.42319"
             height="2653.6848"
             x="-3649.2849"
             y="-1617.9297"
             ry="11.11609" />
          <rect
             style="fill:#f28a15;fill-opacity:1;stroke:none"
             id="rect3078-1"
             width="491.42319"
             height="2653.6848"
             x="-3157.3005"
             y="-1616.0338"
             ry="11.11609" />
          <rect
             style="fill:#f8ea1c;fill-opacity:1;stroke:none"
             id="rect3078-7"
             width="491.42319"
             height="2653.6848"
             x="-2666.7485"
             y="-1615.7158"
             ry="11.11609" />
          <rect
             style="fill:#068136;fill-opacity:1;stroke:none"
             id="rect3078-4"
             width="491.42319"
             height="2653.6848"
             x="-2174.4585"
             y="-1615.6064"
             ry="11.11609" />
          <rect
             style="fill:#2f57a4;fill-opacity:1;stroke:none"
             id="rect3078-0"
             width="491.42319"
             height="2653.6848"
             x="-1682.9637"
             y="-1615.9594"
             ry="11.11609" />
          <rect
             style="fill:#6f2281;fill-opacity:1;stroke:none"
             id="rect3078-9"
             width="491.42319"
             height="2653.6848"
             x="-1191.9928"
             y="-1615.0955"
             ry="11.11609" />
        </g>
      </g>
    </pattern>
    <radialGradient
       inkscape:collect="always"
       xlink:href="#linearGradient3880"
       id="radialGradient3878"
       cx="370"
       cy="802.36218"
       fx="370"
       fy="802.36218"
       r="91"
       gradientTransform="matrix(0.80560853,0,0,0.14065062,71.924841,689.50945)"
       gradientUnits="userSpaceOnUse" />
    <linearGradient
       id="linearGradient3880">
      <stop
         style="stop-color:#000000;stop-opacity:1;"
         offset="0"
         id="stop3882" />
      <stop
         id="stop3886"
         offset="0.60230428"
         style="stop-color:#000000;stop-opacity:0.49803922;" />
      <stop
         id="stop3884"
         offset="1"
         style="stop-color:#000000;stop-opacity:0;" />
    </linearGradient>
    <radialGradient
       r="91"
       fy="802.36218"
       fx="370"
       cy="802.36218"
       cx="370"
       gradientTransform="matrix(0.80560853,0,0,0.14065062,71.924841,689.50945)"
       gradientUnits="userSpaceOnUse"
       id="radialGradient5588"
       xlink:href="#linearGradient3880"
       inkscape:collect="always" />
  </defs>
  <sodipodi:namedview
     id="base"
     pagecolor="#ffffff"
     bordercolor="#666666"
     borderopacity="1.0"
     inkscape:pageopacity="0.0"
     inkscape:pageshadow="2"
     inkscape:zoom="0.7"
     inkscape:cx="632.28743"
     inkscape:cy="249.968"
     inkscape:document-units="px"
     inkscape:current-layer="layer1"
     showgrid="false"
     inkscape:window-width="1920"
     inkscape:window-height="1018"
     inkscape:window-x="1358"
     inkscape:window-y="-8"
     inkscape:window-maximized="1" />
  <metadata
     id="metadata5595">
    <rdf:RDF>
      <cc:Work
         rdf:about="">
        <dc:format>image/svg+xml</dc:format>
        <dc:type
           rdf:resource="http://purl.org/dc/dcmitype/StillImage" />
        <dc:title />
      </cc:Work>
    </rdf:RDF>
  </metadata>
  <g
     inkscape:label="Layer 1"
     inkscape:groupmode="layer"
     id="layer1"
     transform="translate(0,-252.36218)">
    <path
       inkscape:export-ydpi="90"
       inkscape:export-xdpi="90"
       sodipodi:type="arc"
       style="opacity:0.65980003;color:#000000;fill:url(#radialGradient5588);fill-opacity:1;fill-rule:nonzero;marker:none;visibility:visible;display:inline;overflow:visible;enable-background:accumulate"
       id="path3870"
       sodipodi:cx="370"
       sodipodi:cy="802.36218"
       sodipodi:rx="90"
       sodipodi:ry="12.148458"
       d="m 460,802.36218 c 0,6.70941 -40.29437,12.14846 -90,12.14846 -49.70563,0 -90,-5.43905 -90,-12.14846 0,-6.70941 40.29437,-12.14845 90,-12.14845 49.30568,0 89.43245,5.35506 89.99416,12.01005"
       sodipodi:start="0"
       sodipodi:end="6.2717927"
       sodipodi:open="true"
       transform="matrix(3.9225642,0,0,3.3621981,-1050.9352,-1704.7805)"
       inkscape:transform-center-x="-249.15495"
       inkscape:transform-center-y="55.156425" />
    <path
       style="fill:url(#pattern5481);fill-opacity:1;stroke:none"
       d="m 401.98359,359.7763 c 0,0 23.63967,-14.3939 36.15026,-20.24415 32.52137,-15.2077 65.32731,-31.87403 100.63456,-38.3779 32.02901,-5.90012 66.00694,-7.48258 97.70349,0 28.35021,6.69258 55.79855,20.41666 78.16267,39.0813 25.00397,20.86785 43.50713,49.31496 58.62215,78.1628 9.55943,18.24504 16.24132,38.29041 19.54067,58.62214 5.21679,32.14727 5.21679,65.55618 0,97.70345 -3.29935,20.33173 -10.11918,40.3054 -19.54067,58.62205 -28.78732,55.96666 -68.39224,106.4125 -110.99115,152.74077 -48.46119,52.70356 -104.57118,98.40171 -162.5785,140.36955 -30.77125,22.26279 -97.70348,58.62229 -97.70348,58.62229 0,0 -66.93227,-36.3595 -97.70355,-58.62229 C 246.27273,884.48847 190.16275,838.79032 141.70156,786.08676 99.10266,739.75849 59.4977,689.31265 30.710377,633.34599 21.289045,615.02934 14.469064,595.05567 11.169708,574.72394 c -5.2167851,-32.14727 -5.2167851,-65.55618 0,-97.70345 3.299356,-20.33173 9.981245,-40.3771 19.540669,-58.62214 15.115001,-28.84784 33.618183,-57.29495 58.62215,-78.1628 22.364323,-18.66464 49.812493,-32.38872 78.162683,-39.0813 31.69671,-7.48258 65.67464,-5.90012 97.70348,0 35.3074,6.50387 68.11336,23.1702 100.63457,38.3779 12.51062,5.85025 36.15033,20.24415 36.15033,20.24415 z"
       id="path3011"
       inkscape:connector-curvature="0" />
    <path
       inkscape:export-ydpi="90"
       inkscape:export-xdpi="90"
       style="opacity:0.47000002;fill:url(#linearGradient5498);fill-opacity:1;stroke:none"
       d="m 402.7951,582.59194 c 77.69616,1.95515 159.59778,-19.12797 231.36174,-52.31923 60.73323,-37.24198 151.70154,-59.52808 108.45086,-133.95328 -11.06564,-19.26781 -26.01034,-36.75475 -43.38032,-50.61047 -16.18083,-12.90711 -34.943,-23.61033 -54.94844,-28.92022 -27.45236,-7.28656 -57.08143,-7.22257 -85.15829,-2.93119 -37.42465,5.72019 -72.12744,23.28396 -107.16117,37.6355 -16.76031,6.86579 -49.16438,23.13614 -49.16438,23.13614 0,0 -32.44594,-16.16903 -49.16435,-23.13614 -35.04682,-14.60523 -69.46257,-33.37039 -107.00483,-39.04239 -28.63142,-4.32565 -58.8099,-3.22676 -86.76065,4.33808 -18.78718,5.08464 -36.57626,14.80125 -51.82676,26.89397 -17.410136,13.80525 -32.125174,31.45277 -43.380322,50.61046 -49.1475,71.25919 56.665632,113.30822 108.840862,137.0649 71.16343,32.69978 146.11564,49.14077 229.29605,51.23387 z"
       id="path3013"
       inkscape:connector-curvature="0"
       sodipodi:nodetypes="sccaaaacaaaaccs" />
  </g>
</svg>
